<?xml version="1.0" standalone="no"?>
<svg xmlns:xlink="http://www.w3.org/1999/xlink" id="wave" style="transform:rotate(180deg); transition: 0.3s" viewBox="0 0 1440 170" version="1.1" xmlns="http://www.w3.org/2000/svg"><defs><linearGradient id="sw-gradient-0" x1="0" x2="0" y1="1" y2="0"><stop stop-color="rgba(255, 255, 255, 1)" offset="0%"/><stop stop-color="rgba(255, 255, 255, 1)" offset="100%"/></linearGradient></defs><path style="transform:translate(0, 0px); opacity:1" fill="url(#sw-gradient-0)" d="M0,51L60,56.7C120,62,240,74,360,87.8C480,102,600,119,720,107.7C840,96,960,57,1080,56.7C1200,57,1320,96,1440,113.3C1560,130,1680,125,1800,127.5C1920,130,2040,142,2160,147.3C2280,153,2400,153,2520,130.3C2640,108,2760,62,2880,42.5C3000,23,3120,28,3240,48.2C3360,68,3480,102,3600,104.8C3720,108,3840,79,3960,56.7C4080,34,4200,17,4320,17C4440,17,4560,34,4680,59.5C4800,85,4920,119,5040,136C5160,153,5280,153,5400,153C5520,153,5640,153,5760,150.2C5880,147,6000,142,6120,133.2C6240,125,6360,113,6480,90.7C6600,68,6720,34,6840,22.7C6960,11,7080,23,7200,39.7C7320,57,7440,79,7560,73.7C7680,68,7800,34,7920,19.8C8040,6,8160,11,8280,17C8400,23,8520,28,8580,31.2L8640,34L8640,170L8580,170C8520,170,8400,170,8280,170C8160,170,8040,170,7920,170C7800,170,7680,170,7560,170C7440,170,7320,170,7200,170C7080,170,6960,170,6840,170C6720,170,6600,170,6480,170C6360,170,6240,170,6120,170C6000,170,5880,170,5760,170C5640,170,5520,170,5400,170C5280,170,5160,170,5040,170C4920,170,4800,170,4680,170C4560,170,4440,170,4320,170C4200,170,4080,170,3960,170C3840,170,3720,170,3600,170C3480,170,3360,170,3240,170C3120,170,3000,170,2880,170C2760,170,2640,170,2520,170C2400,170,2280,170,2160,170C2040,170,1920,170,1800,170C1680,170,1560,170,1440,170C1320,170,1200,170,1080,170C960,170,840,170,720,170C600,170,480,170,360,170C240,170,120,170,60,170L0,170Z"/></svg>